G04 #@! TF.GenerationSoftware,KiCad,Pcbnew,8.0.1*
G04 #@! TF.CreationDate,2024-04-21T16:22:43+01:00*
G04 #@! TF.ProjectId,lora_adapter,6c6f7261-5f61-4646-9170-7465722e6b69,rev?*
G04 #@! TF.SameCoordinates,Original*
G04 #@! TF.FileFunction,Copper,L2,Bot*
G04 #@! TF.FilePolarity,Positive*
%FSLAX46Y46*%
G04 Gerber Fmt 4.6, Leading zero omitted, Abs format (unit mm)*
G04 Created by KiCad (PCBNEW 8.0.1) date 2024-04-21 16:22:43*
%MOMM*%
%LPD*%
G01*
G04 APERTURE LIST*
G04 #@! TA.AperFunction,ComponentPad*
%ADD10O,1.700000X1.700000*%
G04 #@! TD*
G04 #@! TA.AperFunction,ComponentPad*
%ADD11R,1.700000X1.700000*%
G04 #@! TD*
G04 APERTURE END LIST*
D10*
X91440000Y-88773000D03*
X91440000Y-91313000D03*
X91440000Y-93853000D03*
X91440000Y-96393000D03*
X91440000Y-98933000D03*
X91440000Y-101473000D03*
X91440000Y-104013000D03*
D11*
X91440000Y-106553000D03*
X68580000Y-88900000D03*
D10*
X68580000Y-91440000D03*
X68580000Y-93980000D03*
X68580000Y-96520000D03*
X68580000Y-99060000D03*
X68580000Y-101600000D03*
X68580000Y-104140000D03*
X68580000Y-106680000D03*
G04 #@! TA.AperFunction,Conductor*
G36*
X92990739Y-82841585D02*
G01*
X93036494Y-82894389D01*
X93047700Y-82945900D01*
X93047700Y-108087500D01*
X93028015Y-108154539D01*
X92975211Y-108200294D01*
X92923700Y-108211500D01*
X69024172Y-108211500D01*
X68957133Y-108191815D01*
X68911378Y-108139011D01*
X68901434Y-108069853D01*
X68930459Y-108006297D01*
X68989237Y-107968523D01*
X68992079Y-107967725D01*
X69026038Y-107958625D01*
X69043663Y-107953903D01*
X69257830Y-107854035D01*
X69451401Y-107718495D01*
X69618495Y-107551401D01*
X69754035Y-107357830D01*
X69853903Y-107143663D01*
X69915063Y-106915408D01*
X69935659Y-106680000D01*
X69915063Y-106444592D01*
X69853903Y-106216337D01*
X69754035Y-106002171D01*
X69618495Y-105808599D01*
X69618494Y-105808597D01*
X69451402Y-105641506D01*
X69451396Y-105641501D01*
X69265842Y-105511575D01*
X69222217Y-105456998D01*
X69215023Y-105387500D01*
X69246546Y-105325145D01*
X69265842Y-105308425D01*
X69429740Y-105193662D01*
X69451401Y-105178495D01*
X69618495Y-105011401D01*
X69754035Y-104817830D01*
X69853903Y-104603663D01*
X69915063Y-104375408D01*
X69935659Y-104140000D01*
X69924548Y-104013000D01*
X90084341Y-104013000D01*
X90104936Y-104248403D01*
X90104938Y-104248413D01*
X90166094Y-104476655D01*
X90166096Y-104476659D01*
X90166097Y-104476663D01*
X90201264Y-104552078D01*
X90265965Y-104690830D01*
X90265967Y-104690834D01*
X90354891Y-104817830D01*
X90401501Y-104884396D01*
X90401506Y-104884402D01*
X90523818Y-105006714D01*
X90557303Y-105068037D01*
X90552319Y-105137729D01*
X90510447Y-105193662D01*
X90479471Y-105210577D01*
X90347912Y-105259646D01*
X90347906Y-105259649D01*
X90232812Y-105345809D01*
X90232809Y-105345812D01*
X90146649Y-105460906D01*
X90146645Y-105460913D01*
X90096403Y-105595620D01*
X90096401Y-105595627D01*
X90090000Y-105655155D01*
X90090000Y-106303000D01*
X91006988Y-106303000D01*
X90974075Y-106360007D01*
X90940000Y-106487174D01*
X90940000Y-106618826D01*
X90974075Y-106745993D01*
X91006988Y-106803000D01*
X90090000Y-106803000D01*
X90090000Y-107450844D01*
X90096401Y-107510372D01*
X90096403Y-107510379D01*
X90146645Y-107645086D01*
X90146649Y-107645093D01*
X90232809Y-107760187D01*
X90232812Y-107760190D01*
X90347906Y-107846350D01*
X90347913Y-107846354D01*
X90482620Y-107896596D01*
X90482627Y-107896598D01*
X90542155Y-107902999D01*
X90542172Y-107903000D01*
X91190000Y-107903000D01*
X91190000Y-106986012D01*
X91247007Y-107018925D01*
X91374174Y-107053000D01*
X91505826Y-107053000D01*
X91632993Y-107018925D01*
X91690000Y-106986012D01*
X91690000Y-107903000D01*
X92337828Y-107903000D01*
X92337844Y-107902999D01*
X92397372Y-107896598D01*
X92397379Y-107896596D01*
X92532086Y-107846354D01*
X92532093Y-107846350D01*
X92647187Y-107760190D01*
X92647190Y-107760187D01*
X92733350Y-107645093D01*
X92733354Y-107645086D01*
X92783596Y-107510379D01*
X92783598Y-107510372D01*
X92789999Y-107450844D01*
X92790000Y-107450827D01*
X92790000Y-106803000D01*
X91873012Y-106803000D01*
X91905925Y-106745993D01*
X91940000Y-106618826D01*
X91940000Y-106487174D01*
X91905925Y-106360007D01*
X91873012Y-106303000D01*
X92790000Y-106303000D01*
X92790000Y-105655172D01*
X92789999Y-105655155D01*
X92783598Y-105595627D01*
X92783596Y-105595620D01*
X92733354Y-105460913D01*
X92733350Y-105460906D01*
X92647190Y-105345812D01*
X92647187Y-105345809D01*
X92532093Y-105259649D01*
X92532088Y-105259646D01*
X92400528Y-105210577D01*
X92344595Y-105168705D01*
X92320178Y-105103241D01*
X92335030Y-105034968D01*
X92356175Y-105006720D01*
X92478495Y-104884401D01*
X92614035Y-104690830D01*
X92713903Y-104476663D01*
X92775063Y-104248408D01*
X92795659Y-104013000D01*
X92775063Y-103777592D01*
X92713903Y-103549337D01*
X92614035Y-103335171D01*
X92478495Y-103141599D01*
X92478494Y-103141597D01*
X92311402Y-102974506D01*
X92311396Y-102974501D01*
X92125842Y-102844575D01*
X92082217Y-102789998D01*
X92075023Y-102720500D01*
X92106546Y-102658145D01*
X92125842Y-102641425D01*
X92148026Y-102625891D01*
X92311401Y-102511495D01*
X92478495Y-102344401D01*
X92614035Y-102150830D01*
X92713903Y-101936663D01*
X92775063Y-101708408D01*
X92795659Y-101473000D01*
X92775063Y-101237592D01*
X92713903Y-101009337D01*
X92614035Y-100795171D01*
X92478495Y-100601599D01*
X92478494Y-100601597D01*
X92311402Y-100434506D01*
X92311396Y-100434501D01*
X92125842Y-100304575D01*
X92082217Y-100249998D01*
X92075023Y-100180500D01*
X92106546Y-100118145D01*
X92125842Y-100101425D01*
X92148026Y-100085891D01*
X92311401Y-99971495D01*
X92478495Y-99804401D01*
X92614035Y-99610830D01*
X92713903Y-99396663D01*
X92775063Y-99168408D01*
X92795659Y-98933000D01*
X92775063Y-98697592D01*
X92713903Y-98469337D01*
X92614035Y-98255171D01*
X92478495Y-98061599D01*
X92478494Y-98061597D01*
X92311402Y-97894506D01*
X92311396Y-97894501D01*
X92125842Y-97764575D01*
X92082217Y-97709998D01*
X92075023Y-97640500D01*
X92106546Y-97578145D01*
X92125842Y-97561425D01*
X92148026Y-97545891D01*
X92311401Y-97431495D01*
X92478495Y-97264401D01*
X92614035Y-97070830D01*
X92713903Y-96856663D01*
X92775063Y-96628408D01*
X92795659Y-96393000D01*
X92775063Y-96157592D01*
X92713903Y-95929337D01*
X92614035Y-95715171D01*
X92478495Y-95521599D01*
X92478494Y-95521597D01*
X92311402Y-95354506D01*
X92311396Y-95354501D01*
X92125842Y-95224575D01*
X92082217Y-95169998D01*
X92075023Y-95100500D01*
X92106546Y-95038145D01*
X92125842Y-95021425D01*
X92148026Y-95005891D01*
X92311401Y-94891495D01*
X92478495Y-94724401D01*
X92614035Y-94530830D01*
X92713903Y-94316663D01*
X92775063Y-94088408D01*
X92795659Y-93853000D01*
X92775063Y-93617592D01*
X92713903Y-93389337D01*
X92614035Y-93175171D01*
X92478495Y-92981599D01*
X92478494Y-92981597D01*
X92311402Y-92814506D01*
X92311396Y-92814501D01*
X92125842Y-92684575D01*
X92082217Y-92629998D01*
X92075023Y-92560500D01*
X92106546Y-92498145D01*
X92125842Y-92481425D01*
X92148026Y-92465891D01*
X92311401Y-92351495D01*
X92478495Y-92184401D01*
X92614035Y-91990830D01*
X92713903Y-91776663D01*
X92775063Y-91548408D01*
X92795659Y-91313000D01*
X92775063Y-91077592D01*
X92713903Y-90849337D01*
X92614035Y-90635171D01*
X92482183Y-90446865D01*
X92478494Y-90441597D01*
X92311402Y-90274506D01*
X92311401Y-90274505D01*
X92125405Y-90144269D01*
X92081781Y-90089692D01*
X92074588Y-90020193D01*
X92106110Y-89957839D01*
X92125405Y-89941119D01*
X92311082Y-89811105D01*
X92478105Y-89644082D01*
X92613600Y-89450578D01*
X92713429Y-89236492D01*
X92713432Y-89236486D01*
X92770636Y-89023000D01*
X91873012Y-89023000D01*
X91905925Y-88965993D01*
X91940000Y-88838826D01*
X91940000Y-88707174D01*
X91905925Y-88580007D01*
X91873012Y-88523000D01*
X92770636Y-88523000D01*
X92770635Y-88522999D01*
X92713432Y-88309513D01*
X92713429Y-88309507D01*
X92613600Y-88095422D01*
X92613599Y-88095420D01*
X92478113Y-87901926D01*
X92478108Y-87901920D01*
X92311082Y-87734894D01*
X92117578Y-87599399D01*
X91903492Y-87499570D01*
X91903486Y-87499567D01*
X91690000Y-87442364D01*
X91690000Y-88339988D01*
X91632993Y-88307075D01*
X91505826Y-88273000D01*
X91374174Y-88273000D01*
X91247007Y-88307075D01*
X91190000Y-88339988D01*
X91190000Y-87442364D01*
X91189999Y-87442364D01*
X90976513Y-87499567D01*
X90976507Y-87499570D01*
X90762422Y-87599399D01*
X90762420Y-87599400D01*
X90568926Y-87734886D01*
X90568920Y-87734891D01*
X90401891Y-87901920D01*
X90401886Y-87901926D01*
X90266400Y-88095420D01*
X90266399Y-88095422D01*
X90166570Y-88309507D01*
X90166567Y-88309513D01*
X90109364Y-88522999D01*
X90109364Y-88523000D01*
X91006988Y-88523000D01*
X90974075Y-88580007D01*
X90940000Y-88707174D01*
X90940000Y-88838826D01*
X90974075Y-88965993D01*
X91006988Y-89023000D01*
X90109364Y-89023000D01*
X90166567Y-89236486D01*
X90166570Y-89236492D01*
X90266399Y-89450578D01*
X90401894Y-89644082D01*
X90568917Y-89811105D01*
X90754595Y-89941119D01*
X90798219Y-89995696D01*
X90805412Y-90065195D01*
X90773890Y-90127549D01*
X90754595Y-90144269D01*
X90568594Y-90274508D01*
X90401505Y-90441597D01*
X90265965Y-90635169D01*
X90265964Y-90635171D01*
X90166098Y-90849335D01*
X90166094Y-90849344D01*
X90104938Y-91077586D01*
X90104936Y-91077596D01*
X90084341Y-91312999D01*
X90084341Y-91313000D01*
X90104936Y-91548403D01*
X90104938Y-91548413D01*
X90166094Y-91776655D01*
X90166096Y-91776659D01*
X90166097Y-91776663D01*
X90225236Y-91903486D01*
X90265965Y-91990830D01*
X90265967Y-91990834D01*
X90401501Y-92184395D01*
X90401506Y-92184402D01*
X90568597Y-92351493D01*
X90568603Y-92351498D01*
X90754158Y-92481425D01*
X90797783Y-92536002D01*
X90804977Y-92605500D01*
X90773454Y-92667855D01*
X90754158Y-92684575D01*
X90568597Y-92814505D01*
X90401505Y-92981597D01*
X90265965Y-93175169D01*
X90265964Y-93175171D01*
X90166098Y-93389335D01*
X90166094Y-93389344D01*
X90104938Y-93617586D01*
X90104936Y-93617596D01*
X90084341Y-93852999D01*
X90084341Y-93853000D01*
X90104936Y-94088403D01*
X90104938Y-94088413D01*
X90166094Y-94316655D01*
X90166096Y-94316659D01*
X90166097Y-94316663D01*
X90201264Y-94392078D01*
X90265965Y-94530830D01*
X90265967Y-94530834D01*
X90401501Y-94724395D01*
X90401506Y-94724402D01*
X90568597Y-94891493D01*
X90568603Y-94891498D01*
X90754158Y-95021425D01*
X90797783Y-95076002D01*
X90804977Y-95145500D01*
X90773454Y-95207855D01*
X90754158Y-95224575D01*
X90568597Y-95354505D01*
X90401505Y-95521597D01*
X90265965Y-95715169D01*
X90265964Y-95715171D01*
X90166098Y-95929335D01*
X90166094Y-95929344D01*
X90104938Y-96157586D01*
X90104936Y-96157596D01*
X90084341Y-96392999D01*
X90084341Y-96393000D01*
X90104936Y-96628403D01*
X90104938Y-96628413D01*
X90166094Y-96856655D01*
X90166096Y-96856659D01*
X90166097Y-96856663D01*
X90201264Y-96932078D01*
X90265965Y-97070830D01*
X90265967Y-97070834D01*
X90401501Y-97264395D01*
X90401506Y-97264402D01*
X90568597Y-97431493D01*
X90568603Y-97431498D01*
X90754158Y-97561425D01*
X90797783Y-97616002D01*
X90804977Y-97685500D01*
X90773454Y-97747855D01*
X90754158Y-97764575D01*
X90568597Y-97894505D01*
X90401505Y-98061597D01*
X90265965Y-98255169D01*
X90265964Y-98255171D01*
X90166098Y-98469335D01*
X90166094Y-98469344D01*
X90104938Y-98697586D01*
X90104936Y-98697596D01*
X90084341Y-98932999D01*
X90084341Y-98933000D01*
X90104936Y-99168403D01*
X90104938Y-99168413D01*
X90166094Y-99396655D01*
X90166096Y-99396659D01*
X90166097Y-99396663D01*
X90201264Y-99472078D01*
X90265965Y-99610830D01*
X90265967Y-99610834D01*
X90401501Y-99804395D01*
X90401506Y-99804402D01*
X90568597Y-99971493D01*
X90568603Y-99971498D01*
X90754158Y-100101425D01*
X90797783Y-100156002D01*
X90804977Y-100225500D01*
X90773454Y-100287855D01*
X90754158Y-100304575D01*
X90568597Y-100434505D01*
X90401505Y-100601597D01*
X90265965Y-100795169D01*
X90265964Y-100795171D01*
X90166098Y-101009335D01*
X90166094Y-101009344D01*
X90104938Y-101237586D01*
X90104936Y-101237596D01*
X90084341Y-101472999D01*
X90084341Y-101473000D01*
X90104936Y-101708403D01*
X90104938Y-101708413D01*
X90166094Y-101936655D01*
X90166096Y-101936659D01*
X90166097Y-101936663D01*
X90201264Y-102012078D01*
X90265965Y-102150830D01*
X90265967Y-102150834D01*
X90401501Y-102344395D01*
X90401506Y-102344402D01*
X90568597Y-102511493D01*
X90568603Y-102511498D01*
X90754158Y-102641425D01*
X90797783Y-102696002D01*
X90804977Y-102765500D01*
X90773454Y-102827855D01*
X90754158Y-102844575D01*
X90568597Y-102974505D01*
X90401505Y-103141597D01*
X90265965Y-103335169D01*
X90265964Y-103335171D01*
X90166098Y-103549335D01*
X90166094Y-103549344D01*
X90104938Y-103777586D01*
X90104936Y-103777596D01*
X90084341Y-104012999D01*
X90084341Y-104013000D01*
X69924548Y-104013000D01*
X69915063Y-103904592D01*
X69853903Y-103676337D01*
X69754035Y-103462171D01*
X69618495Y-103268599D01*
X69618494Y-103268597D01*
X69451402Y-103101506D01*
X69451396Y-103101501D01*
X69265842Y-102971575D01*
X69222217Y-102916998D01*
X69215023Y-102847500D01*
X69246546Y-102785145D01*
X69265842Y-102768425D01*
X69288026Y-102752891D01*
X69451401Y-102638495D01*
X69618495Y-102471401D01*
X69754035Y-102277830D01*
X69853903Y-102063663D01*
X69915063Y-101835408D01*
X69935659Y-101600000D01*
X69915063Y-101364592D01*
X69853903Y-101136337D01*
X69754035Y-100922171D01*
X69618495Y-100728599D01*
X69618494Y-100728597D01*
X69451402Y-100561506D01*
X69451396Y-100561501D01*
X69265842Y-100431575D01*
X69222217Y-100376998D01*
X69215023Y-100307500D01*
X69246546Y-100245145D01*
X69265842Y-100228425D01*
X69288026Y-100212891D01*
X69451401Y-100098495D01*
X69618495Y-99931401D01*
X69754035Y-99737830D01*
X69853903Y-99523663D01*
X69915063Y-99295408D01*
X69935659Y-99060000D01*
X69915063Y-98824592D01*
X69853903Y-98596337D01*
X69754035Y-98382171D01*
X69618495Y-98188599D01*
X69618494Y-98188597D01*
X69451402Y-98021506D01*
X69451396Y-98021501D01*
X69265842Y-97891575D01*
X69222217Y-97836998D01*
X69215023Y-97767500D01*
X69246546Y-97705145D01*
X69265842Y-97688425D01*
X69288026Y-97672891D01*
X69451401Y-97558495D01*
X69618495Y-97391401D01*
X69754035Y-97197830D01*
X69853903Y-96983663D01*
X69915063Y-96755408D01*
X69935659Y-96520000D01*
X69915063Y-96284592D01*
X69853903Y-96056337D01*
X69754035Y-95842171D01*
X69618495Y-95648599D01*
X69618494Y-95648597D01*
X69451402Y-95481506D01*
X69451396Y-95481501D01*
X69265842Y-95351575D01*
X69222217Y-95296998D01*
X69215023Y-95227500D01*
X69246546Y-95165145D01*
X69265842Y-95148425D01*
X69288026Y-95132891D01*
X69451401Y-95018495D01*
X69618495Y-94851401D01*
X69754035Y-94657830D01*
X69853903Y-94443663D01*
X69915063Y-94215408D01*
X69935659Y-93980000D01*
X69915063Y-93744592D01*
X69853903Y-93516337D01*
X69754035Y-93302171D01*
X69618495Y-93108599D01*
X69618494Y-93108597D01*
X69451402Y-92941506D01*
X69451401Y-92941505D01*
X69265405Y-92811269D01*
X69221781Y-92756692D01*
X69214588Y-92687193D01*
X69246110Y-92624839D01*
X69265405Y-92608119D01*
X69451082Y-92478105D01*
X69618105Y-92311082D01*
X69753600Y-92117578D01*
X69853429Y-91903492D01*
X69853432Y-91903486D01*
X69910636Y-91690000D01*
X69013012Y-91690000D01*
X69045925Y-91632993D01*
X69080000Y-91505826D01*
X69080000Y-91374174D01*
X69045925Y-91247007D01*
X69013012Y-91190000D01*
X69910636Y-91190000D01*
X69910635Y-91189999D01*
X69853432Y-90976513D01*
X69853429Y-90976507D01*
X69753600Y-90762422D01*
X69753599Y-90762420D01*
X69618113Y-90568926D01*
X69618108Y-90568920D01*
X69496053Y-90446865D01*
X69462568Y-90385542D01*
X69467552Y-90315850D01*
X69509424Y-90259917D01*
X69540400Y-90243002D01*
X69672331Y-90193796D01*
X69787546Y-90107546D01*
X69873796Y-89992331D01*
X69924091Y-89857483D01*
X69930500Y-89797873D01*
X69930499Y-88002128D01*
X69924091Y-87942517D01*
X69908949Y-87901920D01*
X69873797Y-87807671D01*
X69873793Y-87807664D01*
X69787547Y-87692455D01*
X69787544Y-87692452D01*
X69672335Y-87606206D01*
X69672328Y-87606202D01*
X69537482Y-87555908D01*
X69537483Y-87555908D01*
X69477883Y-87549501D01*
X69477881Y-87549500D01*
X69477873Y-87549500D01*
X69477864Y-87549500D01*
X67682129Y-87549500D01*
X67682123Y-87549501D01*
X67622516Y-87555908D01*
X67487671Y-87606202D01*
X67487664Y-87606206D01*
X67372455Y-87692452D01*
X67372452Y-87692455D01*
X67286206Y-87807664D01*
X67281953Y-87815454D01*
X67279064Y-87813876D01*
X67246792Y-87856971D01*
X67181323Y-87881376D01*
X67113052Y-87866511D01*
X67063657Y-87817096D01*
X67048500Y-87757690D01*
X67048500Y-82945900D01*
X67068185Y-82878861D01*
X67120989Y-82833106D01*
X67172500Y-82821900D01*
X92923700Y-82821900D01*
X92990739Y-82841585D01*
G37*
G04 #@! TD.AperFunction*
M02*
