G04 #@! TF.GenerationSoftware,KiCad,Pcbnew,8.0.1*
G04 #@! TF.CreationDate,2024-04-21T16:22:43+01:00*
G04 #@! TF.ProjectId,lora_adapter,6c6f7261-5f61-4646-9170-7465722e6b69,rev?*
G04 #@! TF.SameCoordinates,Original*
G04 #@! TF.FileFunction,Copper,L1,Top*
G04 #@! TF.FilePolarity,Positive*
%FSLAX46Y46*%
G04 Gerber Fmt 4.6, Leading zero omitted, Abs format (unit mm)*
G04 Created by KiCad (PCBNEW 8.0.1) date 2024-04-21 16:22:43*
%MOMM*%
%LPD*%
G01*
G04 APERTURE LIST*
G04 Aperture macros list*
%AMRoundRect*
0 Rectangle with rounded corners*
0 $1 Rounding radius*
0 $2 $3 $4 $5 $6 $7 $8 $9 X,Y pos of 4 corners*
0 Add a 4 corners polygon primitive as box body*
4,1,4,$2,$3,$4,$5,$6,$7,$8,$9,$2,$3,0*
0 Add four circle primitives for the rounded corners*
1,1,$1+$1,$2,$3*
1,1,$1+$1,$4,$5*
1,1,$1+$1,$6,$7*
1,1,$1+$1,$8,$9*
0 Add four rect primitives between the rounded corners*
20,1,$1+$1,$2,$3,$4,$5,0*
20,1,$1+$1,$4,$5,$6,$7,0*
20,1,$1+$1,$6,$7,$8,$9,0*
20,1,$1+$1,$8,$9,$2,$3,0*%
G04 Aperture macros list end*
G04 #@! TA.AperFunction,SMDPad,CuDef*
%ADD10R,1.000000X1.000000*%
G04 #@! TD*
G04 #@! TA.AperFunction,SMDPad,CuDef*
%ADD11R,1.050000X2.200000*%
G04 #@! TD*
G04 #@! TA.AperFunction,SMDPad,CuDef*
%ADD12RoundRect,0.317500X-1.157500X-0.317500X1.157500X-0.317500X1.157500X0.317500X-1.157500X0.317500X0*%
G04 #@! TD*
G04 #@! TA.AperFunction,ComponentPad*
%ADD13O,1.700000X1.700000*%
G04 #@! TD*
G04 #@! TA.AperFunction,ComponentPad*
%ADD14R,1.700000X1.700000*%
G04 #@! TD*
G04 #@! TA.AperFunction,Conductor*
%ADD15C,1.270000*%
G04 #@! TD*
G04 #@! TA.AperFunction,Conductor*
%ADD16C,1.000000*%
G04 #@! TD*
G04 APERTURE END LIST*
D10*
X79933800Y-86869400D03*
D11*
X78458800Y-85369400D03*
D10*
X79933800Y-83869400D03*
D11*
X81408800Y-85369400D03*
D12*
X72434200Y-90586800D03*
X72434200Y-92586800D03*
X72434200Y-94586800D03*
X72434200Y-96586800D03*
X72434200Y-98586800D03*
X72434200Y-100586800D03*
X72434200Y-102586800D03*
X72434200Y-104586800D03*
X87484200Y-104586800D03*
X87484200Y-102586800D03*
X87484200Y-100586800D03*
X87484200Y-98586800D03*
X87484200Y-96586800D03*
X87484200Y-94586800D03*
X87484200Y-92586800D03*
X87484200Y-90586800D03*
D13*
X91440000Y-88773000D03*
X91440000Y-91313000D03*
X91440000Y-93853000D03*
X91440000Y-96393000D03*
X91440000Y-98933000D03*
X91440000Y-101473000D03*
X91440000Y-104013000D03*
D14*
X91440000Y-106553000D03*
X68580000Y-88900000D03*
D13*
X68580000Y-91440000D03*
X68580000Y-93980000D03*
X68580000Y-96520000D03*
X68580000Y-99060000D03*
X68580000Y-101600000D03*
X68580000Y-104140000D03*
X68580000Y-106680000D03*
D15*
X69974200Y-94586800D02*
X69367400Y-93980000D01*
X69367400Y-93980000D02*
X68580000Y-93980000D01*
X72434200Y-94586800D02*
X69974200Y-94586800D01*
X69037200Y-101600000D02*
X68580000Y-101600000D01*
X70050400Y-100586800D02*
X69037200Y-101600000D01*
X72434200Y-100586800D02*
X70050400Y-100586800D01*
X70341000Y-106680000D02*
X72434200Y-104586800D01*
X68580000Y-106680000D02*
X70341000Y-106680000D01*
X72434200Y-102586800D02*
X70514200Y-102586800D01*
X70514200Y-102586800D02*
X68961000Y-104140000D01*
X68961000Y-104140000D02*
X68580000Y-104140000D01*
X91246200Y-96586800D02*
X91440000Y-96393000D01*
X87484200Y-96586800D02*
X91246200Y-96586800D01*
X90551000Y-104013000D02*
X91440000Y-104013000D01*
X89124800Y-102586800D02*
X90551000Y-104013000D01*
X87484200Y-102586800D02*
X89124800Y-102586800D01*
X91093800Y-98586800D02*
X91440000Y-98933000D01*
X87484200Y-98586800D02*
X91093800Y-98586800D01*
X87484200Y-100586800D02*
X89639400Y-100586800D01*
X90525600Y-101473000D02*
X91440000Y-101473000D01*
X89639400Y-100586800D02*
X90525600Y-101473000D01*
X87484200Y-94586800D02*
X89969600Y-94586800D01*
X90703400Y-93853000D02*
X91440000Y-93853000D01*
X89969600Y-94586800D02*
X90703400Y-93853000D01*
D16*
X79933800Y-86869400D02*
X79933800Y-88036400D01*
X77383400Y-90586800D02*
X72434200Y-90586800D01*
X79933800Y-88036400D02*
X77383400Y-90586800D01*
D15*
X68630800Y-88849200D02*
X68580000Y-88900000D01*
X70081800Y-92510000D02*
X69011800Y-91440000D01*
D16*
X80694400Y-83869400D02*
X81408800Y-84583800D01*
X78458800Y-84482200D02*
X79071600Y-83869400D01*
X79933800Y-83869400D02*
X80694400Y-83869400D01*
D15*
X87484200Y-104586800D02*
X89450400Y-106553000D01*
X89298000Y-88773000D02*
X91440000Y-88773000D01*
D16*
X81408800Y-84583800D02*
X81408800Y-85369400D01*
X78458800Y-85369400D02*
X78458800Y-84482200D01*
D15*
X72434200Y-92586800D02*
X72357400Y-92510000D01*
D16*
X79071600Y-83869400D02*
X79933800Y-83869400D01*
D15*
X87484200Y-90586800D02*
X89298000Y-88773000D01*
X72357400Y-92510000D02*
X70081800Y-92510000D01*
X69011800Y-91440000D02*
X68580000Y-91440000D01*
X89450400Y-106553000D02*
X91440000Y-106553000D01*
X69053200Y-98586800D02*
X68580000Y-99060000D01*
X72434200Y-98586800D02*
X69053200Y-98586800D01*
X68646800Y-96586800D02*
X68580000Y-96520000D01*
X72434200Y-96586800D02*
X68646800Y-96586800D01*
X89201000Y-92586800D02*
X90474800Y-91313000D01*
X87484200Y-92586800D02*
X89201000Y-92586800D01*
X90474800Y-91313000D02*
X91440000Y-91313000D01*
G04 #@! TA.AperFunction,Conductor*
G36*
X79038395Y-82841585D02*
G01*
X79084150Y-82894389D01*
X79094094Y-82963547D01*
X79070622Y-83020212D01*
X78990447Y-83127310D01*
X78990445Y-83127313D01*
X78940203Y-83262020D01*
X78940201Y-83262027D01*
X78933800Y-83321555D01*
X78933800Y-83645400D01*
X78914115Y-83712439D01*
X78861311Y-83758194D01*
X78809800Y-83769400D01*
X78708800Y-83769400D01*
X78708800Y-85119400D01*
X79483800Y-85119400D01*
X79483800Y-84993400D01*
X79503485Y-84926361D01*
X79556289Y-84880606D01*
X79607800Y-84869400D01*
X79683800Y-84869400D01*
X79683800Y-83743400D01*
X79703485Y-83676361D01*
X79756289Y-83630606D01*
X79807800Y-83619400D01*
X80059800Y-83619400D01*
X80126839Y-83639085D01*
X80172594Y-83691889D01*
X80183800Y-83743400D01*
X80183800Y-84869400D01*
X80259800Y-84869400D01*
X80326839Y-84889085D01*
X80372594Y-84941889D01*
X80383800Y-84993400D01*
X80383800Y-85119400D01*
X81158800Y-85119400D01*
X81158800Y-83769400D01*
X81658800Y-83769400D01*
X81658800Y-85119400D01*
X82433800Y-85119400D01*
X82433800Y-84221572D01*
X82433799Y-84221555D01*
X82427398Y-84162027D01*
X82427396Y-84162020D01*
X82377154Y-84027313D01*
X82377150Y-84027306D01*
X82290990Y-83912212D01*
X82290987Y-83912209D01*
X82175893Y-83826049D01*
X82175886Y-83826045D01*
X82041179Y-83775803D01*
X82041172Y-83775801D01*
X81981644Y-83769400D01*
X81658800Y-83769400D01*
X81158800Y-83769400D01*
X81057800Y-83769400D01*
X80990761Y-83749715D01*
X80945006Y-83696911D01*
X80933800Y-83645400D01*
X80933800Y-83321572D01*
X80933799Y-83321555D01*
X80927398Y-83262027D01*
X80927396Y-83262020D01*
X80877154Y-83127313D01*
X80877152Y-83127310D01*
X80796978Y-83020212D01*
X80772560Y-82954747D01*
X80787411Y-82886474D01*
X80836816Y-82837068D01*
X80896244Y-82821900D01*
X92923700Y-82821900D01*
X92990739Y-82841585D01*
X93036494Y-82894389D01*
X93047700Y-82945900D01*
X93047700Y-108087500D01*
X93028015Y-108154539D01*
X92975211Y-108200294D01*
X92923700Y-108211500D01*
X69024172Y-108211500D01*
X68957133Y-108191815D01*
X68911378Y-108139011D01*
X68901434Y-108069853D01*
X68930459Y-108006297D01*
X68989237Y-107968523D01*
X68992079Y-107967725D01*
X69026038Y-107958625D01*
X69043663Y-107953903D01*
X69257830Y-107854035D01*
X69280838Y-107837924D01*
X69347043Y-107815598D01*
X69351960Y-107815500D01*
X70430370Y-107815500D01*
X70508824Y-107803073D01*
X70606897Y-107787541D01*
X70735193Y-107745853D01*
X70776881Y-107732309D01*
X70936132Y-107651167D01*
X71080728Y-107546111D01*
X71207111Y-107419728D01*
X72868220Y-105758619D01*
X72929543Y-105725134D01*
X72955901Y-105722300D01*
X73637642Y-105722300D01*
X73637642Y-105722299D01*
X73699873Y-105715287D01*
X73774871Y-105706838D01*
X73776274Y-105706347D01*
X73948863Y-105645956D01*
X74104942Y-105547885D01*
X74235285Y-105417542D01*
X74333356Y-105261463D01*
X74394237Y-105087474D01*
X74394237Y-105087473D01*
X74394238Y-105087471D01*
X74403337Y-105006713D01*
X74409700Y-104950238D01*
X74409700Y-104836800D01*
X85509200Y-104836800D01*
X85509200Y-104950218D01*
X85524651Y-105087353D01*
X85524652Y-105087359D01*
X85585496Y-105261243D01*
X85683508Y-105417228D01*
X85813771Y-105547491D01*
X85969756Y-105645503D01*
X86143640Y-105706347D01*
X86143646Y-105706348D01*
X86280781Y-105721799D01*
X86280785Y-105721800D01*
X87234200Y-105721800D01*
X87234200Y-104836800D01*
X85509200Y-104836800D01*
X74409700Y-104836800D01*
X74409700Y-104223362D01*
X74404125Y-104173890D01*
X74394238Y-104086128D01*
X74368649Y-104012999D01*
X74333356Y-103912137D01*
X74235285Y-103756058D01*
X74153708Y-103674481D01*
X74120223Y-103613158D01*
X74125207Y-103543466D01*
X74153708Y-103499119D01*
X74190658Y-103462169D01*
X74235285Y-103417542D01*
X74333356Y-103261463D01*
X74394237Y-103087474D01*
X74394237Y-103087473D01*
X74394238Y-103087471D01*
X74402687Y-103012473D01*
X74409700Y-102950242D01*
X85508700Y-102950242D01*
X85524161Y-103087471D01*
X85585045Y-103261465D01*
X85683115Y-103417542D01*
X85765045Y-103499472D01*
X85798530Y-103560795D01*
X85793546Y-103630487D01*
X85765046Y-103674834D01*
X85683507Y-103756373D01*
X85585496Y-103912356D01*
X85524652Y-104086240D01*
X85524651Y-104086246D01*
X85509200Y-104223381D01*
X85509200Y-104336800D01*
X87610200Y-104336800D01*
X87677239Y-104356485D01*
X87722994Y-104409289D01*
X87734200Y-104460800D01*
X87734200Y-105721800D01*
X88687615Y-105721800D01*
X88687618Y-105721799D01*
X88824753Y-105706348D01*
X88824759Y-105706347D01*
X88998643Y-105645503D01*
X89154628Y-105547491D01*
X89284891Y-105417228D01*
X89382903Y-105261243D01*
X89443747Y-105087359D01*
X89443748Y-105087353D01*
X89459199Y-104950218D01*
X89459200Y-104950214D01*
X89459200Y-104826401D01*
X89478885Y-104759362D01*
X89531689Y-104713607D01*
X89600847Y-104703663D01*
X89664403Y-104732688D01*
X89670854Y-104738694D01*
X89811271Y-104879111D01*
X89872118Y-104923319D01*
X89955868Y-104984167D01*
X90115119Y-105065309D01*
X90115121Y-105065310D01*
X90231058Y-105102980D01*
X90288733Y-105142417D01*
X90315932Y-105206776D01*
X90304017Y-105275622D01*
X90267054Y-105320176D01*
X90232809Y-105345813D01*
X90146649Y-105460906D01*
X90146645Y-105460913D01*
X90096403Y-105595620D01*
X90096401Y-105595627D01*
X90090000Y-105655155D01*
X90090000Y-106303000D01*
X91006988Y-106303000D01*
X90974075Y-106360007D01*
X90940000Y-106487174D01*
X90940000Y-106618826D01*
X90974075Y-106745993D01*
X91006988Y-106803000D01*
X90090000Y-106803000D01*
X90090000Y-107450844D01*
X90096401Y-107510372D01*
X90096403Y-107510379D01*
X90146645Y-107645086D01*
X90146649Y-107645093D01*
X90232809Y-107760187D01*
X90232812Y-107760190D01*
X90347906Y-107846350D01*
X90347913Y-107846354D01*
X90482620Y-107896596D01*
X90482627Y-107896598D01*
X90542155Y-107902999D01*
X90542172Y-107903000D01*
X91190000Y-107903000D01*
X91190000Y-106986012D01*
X91247007Y-107018925D01*
X91374174Y-107053000D01*
X91505826Y-107053000D01*
X91632993Y-107018925D01*
X91690000Y-106986012D01*
X91690000Y-107903000D01*
X92337828Y-107903000D01*
X92337844Y-107902999D01*
X92397372Y-107896598D01*
X92397379Y-107896596D01*
X92532086Y-107846354D01*
X92532093Y-107846350D01*
X92647187Y-107760190D01*
X92647190Y-107760187D01*
X92733350Y-107645093D01*
X92733354Y-107645086D01*
X92783596Y-107510379D01*
X92783598Y-107510372D01*
X92789999Y-107450844D01*
X92790000Y-107450827D01*
X92790000Y-106803000D01*
X91873012Y-106803000D01*
X91905925Y-106745993D01*
X91940000Y-106618826D01*
X91940000Y-106487174D01*
X91905925Y-106360007D01*
X91873012Y-106303000D01*
X92790000Y-106303000D01*
X92790000Y-105655172D01*
X92789999Y-105655155D01*
X92783598Y-105595627D01*
X92783596Y-105595620D01*
X92733354Y-105460913D01*
X92733350Y-105460906D01*
X92647190Y-105345812D01*
X92647187Y-105345809D01*
X92532093Y-105259649D01*
X92532088Y-105259646D01*
X92400528Y-105210577D01*
X92344595Y-105168705D01*
X92320178Y-105103241D01*
X92335030Y-105034968D01*
X92356175Y-105006720D01*
X92478495Y-104884401D01*
X92614035Y-104690830D01*
X92713903Y-104476663D01*
X92775063Y-104248408D01*
X92795659Y-104013000D01*
X92775063Y-103777592D01*
X92713903Y-103549337D01*
X92614035Y-103335171D01*
X92562425Y-103261463D01*
X92478494Y-103141597D01*
X92311402Y-102974506D01*
X92311396Y-102974501D01*
X92125842Y-102844575D01*
X92082217Y-102789998D01*
X92075023Y-102720500D01*
X92106546Y-102658145D01*
X92125842Y-102641425D01*
X92148026Y-102625891D01*
X92311401Y-102511495D01*
X92478495Y-102344401D01*
X92614035Y-102150830D01*
X92713903Y-101936663D01*
X92775063Y-101708408D01*
X92795659Y-101473000D01*
X92775063Y-101237592D01*
X92713903Y-101009337D01*
X92614035Y-100795171D01*
X92478495Y-100601599D01*
X92478494Y-100601597D01*
X92311402Y-100434506D01*
X92311396Y-100434501D01*
X92125842Y-100304575D01*
X92082217Y-100249998D01*
X92075023Y-100180500D01*
X92106546Y-100118145D01*
X92125842Y-100101425D01*
X92148026Y-100085891D01*
X92311401Y-99971495D01*
X92478495Y-99804401D01*
X92614035Y-99610830D01*
X92713903Y-99396663D01*
X92775063Y-99168408D01*
X92795659Y-98933000D01*
X92775063Y-98697592D01*
X92713903Y-98469337D01*
X92614035Y-98255171D01*
X92591763Y-98223362D01*
X92478494Y-98061597D01*
X92311402Y-97894506D01*
X92311396Y-97894501D01*
X92125842Y-97764575D01*
X92082217Y-97709998D01*
X92075023Y-97640500D01*
X92106546Y-97578145D01*
X92125842Y-97561425D01*
X92214824Y-97499119D01*
X92311401Y-97431495D01*
X92478495Y-97264401D01*
X92614035Y-97070830D01*
X92713903Y-96856663D01*
X92775063Y-96628408D01*
X92795659Y-96393000D01*
X92775063Y-96157592D01*
X92713903Y-95929337D01*
X92614035Y-95715171D01*
X92551398Y-95625715D01*
X92478494Y-95521597D01*
X92311402Y-95354506D01*
X92311396Y-95354501D01*
X92125842Y-95224575D01*
X92082217Y-95169998D01*
X92075023Y-95100500D01*
X92106546Y-95038145D01*
X92125842Y-95021425D01*
X92148026Y-95005891D01*
X92311401Y-94891495D01*
X92478495Y-94724401D01*
X92614035Y-94530830D01*
X92713903Y-94316663D01*
X92775063Y-94088408D01*
X92795659Y-93853000D01*
X92775063Y-93617592D01*
X92721460Y-93417542D01*
X92713905Y-93389344D01*
X92713904Y-93389343D01*
X92713903Y-93389337D01*
X92614035Y-93175171D01*
X92571127Y-93113891D01*
X92478494Y-92981597D01*
X92311402Y-92814506D01*
X92311396Y-92814501D01*
X92125842Y-92684575D01*
X92082217Y-92629998D01*
X92075023Y-92560500D01*
X92106546Y-92498145D01*
X92125842Y-92481425D01*
X92148026Y-92465891D01*
X92311401Y-92351495D01*
X92478495Y-92184401D01*
X92614035Y-91990830D01*
X92713903Y-91776663D01*
X92775063Y-91548408D01*
X92795659Y-91313000D01*
X92775063Y-91077592D01*
X92713903Y-90849337D01*
X92614035Y-90635171D01*
X92527146Y-90511079D01*
X92478494Y-90441597D01*
X92311402Y-90274506D01*
X92311401Y-90274505D01*
X92125405Y-90144269D01*
X92081781Y-90089692D01*
X92074588Y-90020193D01*
X92106110Y-89957839D01*
X92125405Y-89941119D01*
X92311082Y-89811105D01*
X92478105Y-89644082D01*
X92613600Y-89450578D01*
X92713429Y-89236492D01*
X92713432Y-89236486D01*
X92770636Y-89023000D01*
X91873012Y-89023000D01*
X91905925Y-88965993D01*
X91940000Y-88838826D01*
X91940000Y-88707174D01*
X91905925Y-88580007D01*
X91873012Y-88523000D01*
X92770636Y-88523000D01*
X92770635Y-88522999D01*
X92713432Y-88309513D01*
X92713429Y-88309507D01*
X92613600Y-88095422D01*
X92613599Y-88095420D01*
X92478113Y-87901926D01*
X92478108Y-87901920D01*
X92311082Y-87734894D01*
X92117578Y-87599399D01*
X91903492Y-87499570D01*
X91903486Y-87499567D01*
X91690000Y-87442364D01*
X91690000Y-88339988D01*
X91632993Y-88307075D01*
X91505826Y-88273000D01*
X91374174Y-88273000D01*
X91247007Y-88307075D01*
X91190000Y-88339988D01*
X91190000Y-87442364D01*
X91189999Y-87442364D01*
X90976513Y-87499567D01*
X90976507Y-87499570D01*
X90762422Y-87599399D01*
X90762420Y-87599400D01*
X90568926Y-87734886D01*
X90568920Y-87734891D01*
X90401891Y-87901920D01*
X90401886Y-87901926D01*
X90266400Y-88095420D01*
X90266399Y-88095422D01*
X90166570Y-88309507D01*
X90166567Y-88309513D01*
X90109364Y-88522999D01*
X90109364Y-88523000D01*
X91006988Y-88523000D01*
X90974075Y-88580007D01*
X90940000Y-88707174D01*
X90940000Y-88838826D01*
X90974075Y-88965993D01*
X91006988Y-89023000D01*
X90109364Y-89023000D01*
X90166567Y-89236486D01*
X90166570Y-89236492D01*
X90266399Y-89450578D01*
X90401894Y-89644082D01*
X90568917Y-89811105D01*
X90754595Y-89941119D01*
X90798219Y-89995696D01*
X90805412Y-90065195D01*
X90773890Y-90127549D01*
X90754599Y-90144265D01*
X90739168Y-90155071D01*
X90672963Y-90177402D01*
X90668040Y-90177500D01*
X90385434Y-90177500D01*
X90326590Y-90186820D01*
X90208901Y-90205460D01*
X90208898Y-90205460D01*
X90038921Y-90260689D01*
X90038918Y-90260690D01*
X89879666Y-90341834D01*
X89795916Y-90402681D01*
X89795915Y-90402680D01*
X89735079Y-90446881D01*
X89735071Y-90446888D01*
X89670881Y-90511079D01*
X89609558Y-90544564D01*
X89539866Y-90539580D01*
X89483933Y-90497708D01*
X89459516Y-90432244D01*
X89459200Y-90423398D01*
X89459200Y-90223385D01*
X89459199Y-90223381D01*
X89443748Y-90086246D01*
X89443747Y-90086240D01*
X89382903Y-89912356D01*
X89284891Y-89756371D01*
X89154628Y-89626108D01*
X88998643Y-89528096D01*
X88824759Y-89467252D01*
X88824753Y-89467251D01*
X88687618Y-89451800D01*
X87734200Y-89451800D01*
X87734200Y-90712800D01*
X87714515Y-90779839D01*
X87661711Y-90825594D01*
X87610200Y-90836800D01*
X85509200Y-90836800D01*
X85509200Y-90950218D01*
X85524651Y-91087353D01*
X85524652Y-91087359D01*
X85585496Y-91261243D01*
X85683508Y-91417228D01*
X85765045Y-91498765D01*
X85798530Y-91560088D01*
X85793546Y-91629780D01*
X85765046Y-91674127D01*
X85683114Y-91756059D01*
X85585045Y-91912134D01*
X85524161Y-92086128D01*
X85508700Y-92223357D01*
X85508700Y-92950242D01*
X85524161Y-93087471D01*
X85570429Y-93219696D01*
X85581209Y-93250504D01*
X85585045Y-93261465D01*
X85683115Y-93417542D01*
X85764692Y-93499119D01*
X85798177Y-93560442D01*
X85793193Y-93630134D01*
X85764692Y-93674481D01*
X85683115Y-93756057D01*
X85585045Y-93912134D01*
X85524161Y-94086128D01*
X85508700Y-94223357D01*
X85508700Y-94950242D01*
X85524161Y-95087471D01*
X85585045Y-95261465D01*
X85683115Y-95417542D01*
X85764692Y-95499119D01*
X85798177Y-95560442D01*
X85793193Y-95630134D01*
X85764692Y-95674481D01*
X85683115Y-95756057D01*
X85585045Y-95912134D01*
X85524161Y-96086128D01*
X85508700Y-96223357D01*
X85508700Y-96950242D01*
X85524161Y-97087471D01*
X85585045Y-97261465D01*
X85683115Y-97417542D01*
X85764692Y-97499119D01*
X85798177Y-97560442D01*
X85793193Y-97630134D01*
X85764692Y-97674481D01*
X85683115Y-97756057D01*
X85585045Y-97912134D01*
X85524161Y-98086128D01*
X85508700Y-98223357D01*
X85508700Y-98950242D01*
X85524161Y-99087471D01*
X85585045Y-99261465D01*
X85683115Y-99417542D01*
X85764692Y-99499119D01*
X85798177Y-99560442D01*
X85793193Y-99630134D01*
X85764692Y-99674481D01*
X85683115Y-99756057D01*
X85585045Y-99912134D01*
X85524161Y-100086128D01*
X85508700Y-100223357D01*
X85508700Y-100950242D01*
X85524161Y-101087471D01*
X85585045Y-101261465D01*
X85683115Y-101417542D01*
X85764692Y-101499119D01*
X85798177Y-101560442D01*
X85793193Y-101630134D01*
X85764692Y-101674481D01*
X85683115Y-101756057D01*
X85585045Y-101912134D01*
X85524161Y-102086128D01*
X85508700Y-102223357D01*
X85508700Y-102950242D01*
X74409700Y-102950242D01*
X74409700Y-102950238D01*
X74409700Y-102223362D01*
X74401528Y-102150834D01*
X74394238Y-102086128D01*
X74379556Y-102044171D01*
X74333356Y-101912137D01*
X74235285Y-101756058D01*
X74153708Y-101674481D01*
X74120223Y-101613158D01*
X74125207Y-101543466D01*
X74153708Y-101499119D01*
X74179828Y-101472999D01*
X74235285Y-101417542D01*
X74333356Y-101261463D01*
X74394237Y-101087474D01*
X74394237Y-101087473D01*
X74394238Y-101087471D01*
X74403041Y-101009335D01*
X74409700Y-100950238D01*
X74409700Y-100223362D01*
X74397845Y-100118145D01*
X74394238Y-100086128D01*
X74354125Y-99971493D01*
X74333356Y-99912137D01*
X74235285Y-99756058D01*
X74153708Y-99674481D01*
X74120223Y-99613158D01*
X74125207Y-99543466D01*
X74153708Y-99499119D01*
X74183591Y-99469236D01*
X74235285Y-99417542D01*
X74333356Y-99261463D01*
X74394237Y-99087474D01*
X74394237Y-99087473D01*
X74394238Y-99087471D01*
X74402687Y-99012473D01*
X74409700Y-98950238D01*
X74409700Y-98223362D01*
X74404125Y-98173890D01*
X74394238Y-98086128D01*
X74371625Y-98021505D01*
X74333356Y-97912137D01*
X74235285Y-97756058D01*
X74153708Y-97674481D01*
X74120223Y-97613158D01*
X74125207Y-97543466D01*
X74153708Y-97499119D01*
X74235285Y-97417542D01*
X74333356Y-97261463D01*
X74394237Y-97087474D01*
X74394237Y-97087473D01*
X74394238Y-97087471D01*
X74402687Y-97012473D01*
X74409700Y-96950238D01*
X74409700Y-96223362D01*
X74402290Y-96157596D01*
X74394238Y-96086128D01*
X74379622Y-96044359D01*
X74333356Y-95912137D01*
X74235285Y-95756058D01*
X74153708Y-95674481D01*
X74120223Y-95613158D01*
X74125207Y-95543466D01*
X74153708Y-95499119D01*
X74171322Y-95481505D01*
X74235285Y-95417542D01*
X74333356Y-95261463D01*
X74394237Y-95087474D01*
X74394237Y-95087473D01*
X74394238Y-95087471D01*
X74402687Y-95012473D01*
X74409700Y-94950238D01*
X74409700Y-94223362D01*
X74394495Y-94088413D01*
X74394238Y-94086128D01*
X74357102Y-93980000D01*
X74333356Y-93912137D01*
X74235285Y-93756058D01*
X74153354Y-93674127D01*
X74119869Y-93612804D01*
X74124853Y-93543112D01*
X74153354Y-93498764D01*
X74234893Y-93417225D01*
X74332903Y-93261243D01*
X74393747Y-93087359D01*
X74393748Y-93087353D01*
X74409199Y-92950218D01*
X74409200Y-92950214D01*
X74409200Y-92836800D01*
X70459200Y-92836800D01*
X70459200Y-92950218D01*
X70474651Y-93087353D01*
X70474652Y-93087359D01*
X70507322Y-93180725D01*
X70510883Y-93250504D01*
X70476154Y-93311131D01*
X70414160Y-93343358D01*
X70344585Y-93336952D01*
X70302599Y-93309360D01*
X70107130Y-93113891D01*
X70107124Y-93113886D01*
X70054787Y-93075861D01*
X69962532Y-93008833D01*
X69803281Y-92927691D01*
X69803275Y-92927688D01*
X69761594Y-92914146D01*
X69694853Y-92892460D01*
X69633297Y-92872459D01*
X69633295Y-92872458D01*
X69633294Y-92872458D01*
X69456770Y-92844500D01*
X69456766Y-92844500D01*
X69351960Y-92844500D01*
X69284921Y-92824815D01*
X69280862Y-92822092D01*
X69265402Y-92811267D01*
X69221779Y-92756690D01*
X69214587Y-92687191D01*
X69246110Y-92624837D01*
X69265405Y-92608119D01*
X69451079Y-92478108D01*
X69618105Y-92311082D01*
X69753600Y-92117578D01*
X69853429Y-91903492D01*
X69853432Y-91903486D01*
X69910636Y-91690000D01*
X69013012Y-91690000D01*
X69045925Y-91632993D01*
X69080000Y-91505826D01*
X69080000Y-91374174D01*
X69045925Y-91247007D01*
X69013012Y-91190000D01*
X69910636Y-91190000D01*
X69910635Y-91189999D01*
X69853432Y-90976513D01*
X69853429Y-90976507D01*
X69841181Y-90950242D01*
X70458700Y-90950242D01*
X70474161Y-91087471D01*
X70535045Y-91261465D01*
X70633115Y-91417542D01*
X70715045Y-91499472D01*
X70748530Y-91560795D01*
X70743546Y-91630487D01*
X70715046Y-91674834D01*
X70633507Y-91756373D01*
X70535496Y-91912356D01*
X70474652Y-92086240D01*
X70474651Y-92086246D01*
X70459200Y-92223381D01*
X70459200Y-92336800D01*
X74409200Y-92336800D01*
X74409200Y-92223385D01*
X74409199Y-92223381D01*
X74393748Y-92086246D01*
X74393747Y-92086240D01*
X74332903Y-91912356D01*
X74248024Y-91777272D01*
X74229024Y-91710035D01*
X74249392Y-91643200D01*
X74302659Y-91597986D01*
X74353018Y-91587300D01*
X77481942Y-91587300D01*
X77501270Y-91583455D01*
X77578588Y-91568075D01*
X77675236Y-91548851D01*
X77728565Y-91526761D01*
X77857314Y-91473432D01*
X78021182Y-91363939D01*
X78160539Y-91224582D01*
X78160539Y-91224580D01*
X78170747Y-91214373D01*
X78170748Y-91214370D01*
X79048319Y-90336800D01*
X85509200Y-90336800D01*
X87234200Y-90336800D01*
X87234200Y-89451800D01*
X86280781Y-89451800D01*
X86143646Y-89467251D01*
X86143640Y-89467252D01*
X85969756Y-89528096D01*
X85813771Y-89626108D01*
X85683508Y-89756371D01*
X85585496Y-89912356D01*
X85524652Y-90086240D01*
X85524651Y-90086246D01*
X85509200Y-90223381D01*
X85509200Y-90336800D01*
X79048319Y-90336800D01*
X80710939Y-88674182D01*
X80771662Y-88583303D01*
X80820432Y-88510314D01*
X80895851Y-88328235D01*
X80934300Y-88134941D01*
X80934300Y-87093400D01*
X80953985Y-87026361D01*
X81006789Y-86980606D01*
X81058300Y-86969400D01*
X81158800Y-86969400D01*
X81158800Y-85619400D01*
X81658800Y-85619400D01*
X81658800Y-86969400D01*
X81981628Y-86969400D01*
X81981644Y-86969399D01*
X82041172Y-86962998D01*
X82041179Y-86962996D01*
X82175886Y-86912754D01*
X82175893Y-86912750D01*
X82290987Y-86826590D01*
X82290990Y-86826587D01*
X82377150Y-86711493D01*
X82377154Y-86711486D01*
X82427396Y-86576779D01*
X82427398Y-86576772D01*
X82433799Y-86517244D01*
X82433800Y-86517227D01*
X82433800Y-85619400D01*
X81658800Y-85619400D01*
X81158800Y-85619400D01*
X80383800Y-85619400D01*
X80383800Y-85744900D01*
X80364115Y-85811939D01*
X80311311Y-85857694D01*
X80259800Y-85868900D01*
X79607800Y-85868900D01*
X79540761Y-85849215D01*
X79495006Y-85796411D01*
X79483800Y-85744900D01*
X79483800Y-85619400D01*
X78708800Y-85619400D01*
X78708800Y-86969400D01*
X78809300Y-86969400D01*
X78876339Y-86989085D01*
X78922094Y-87041889D01*
X78933300Y-87093400D01*
X78933300Y-87570617D01*
X78913615Y-87637656D01*
X78896981Y-87658298D01*
X77005299Y-89549981D01*
X76943976Y-89583466D01*
X76917618Y-89586300D01*
X74077937Y-89586300D01*
X74011964Y-89567293D01*
X73948865Y-89527645D01*
X73948867Y-89527645D01*
X73774871Y-89466761D01*
X73637642Y-89451300D01*
X73637638Y-89451300D01*
X71230762Y-89451300D01*
X71230758Y-89451300D01*
X71093528Y-89466761D01*
X70919534Y-89527645D01*
X70763457Y-89625715D01*
X70633115Y-89756057D01*
X70535045Y-89912134D01*
X70474161Y-90086128D01*
X70458700Y-90223357D01*
X70458700Y-90950242D01*
X69841181Y-90950242D01*
X69753600Y-90762422D01*
X69753599Y-90762420D01*
X69618113Y-90568926D01*
X69618108Y-90568920D01*
X69496053Y-90446865D01*
X69462568Y-90385542D01*
X69467552Y-90315850D01*
X69509424Y-90259917D01*
X69540400Y-90243002D01*
X69672331Y-90193796D01*
X69787546Y-90107546D01*
X69873796Y-89992331D01*
X69924091Y-89857483D01*
X69930500Y-89797873D01*
X69930499Y-88002128D01*
X69924091Y-87942517D01*
X69908949Y-87901920D01*
X69873797Y-87807671D01*
X69873793Y-87807664D01*
X69787547Y-87692455D01*
X69787544Y-87692452D01*
X69672335Y-87606206D01*
X69672328Y-87606202D01*
X69537482Y-87555908D01*
X69537483Y-87555908D01*
X69477883Y-87549501D01*
X69477881Y-87549500D01*
X69477873Y-87549500D01*
X69477864Y-87549500D01*
X67682129Y-87549500D01*
X67682123Y-87549501D01*
X67622516Y-87555908D01*
X67487671Y-87606202D01*
X67487664Y-87606206D01*
X67372455Y-87692452D01*
X67372452Y-87692455D01*
X67286206Y-87807664D01*
X67281953Y-87815454D01*
X67279064Y-87813876D01*
X67246792Y-87856971D01*
X67181323Y-87881376D01*
X67113052Y-87866511D01*
X67063657Y-87817096D01*
X67048500Y-87757690D01*
X67048500Y-85619400D01*
X77433800Y-85619400D01*
X77433800Y-86517244D01*
X77440201Y-86576772D01*
X77440203Y-86576779D01*
X77490445Y-86711486D01*
X77490449Y-86711493D01*
X77576609Y-86826587D01*
X77576612Y-86826590D01*
X77691706Y-86912750D01*
X77691713Y-86912754D01*
X77826420Y-86962996D01*
X77826427Y-86962998D01*
X77885955Y-86969399D01*
X77885972Y-86969400D01*
X78208800Y-86969400D01*
X78208800Y-85619400D01*
X77433800Y-85619400D01*
X67048500Y-85619400D01*
X67048500Y-85119400D01*
X77433800Y-85119400D01*
X78208800Y-85119400D01*
X78208800Y-83769400D01*
X77885955Y-83769400D01*
X77826427Y-83775801D01*
X77826420Y-83775803D01*
X77691713Y-83826045D01*
X77691706Y-83826049D01*
X77576612Y-83912209D01*
X77576609Y-83912212D01*
X77490449Y-84027306D01*
X77490445Y-84027313D01*
X77440203Y-84162020D01*
X77440201Y-84162027D01*
X77433800Y-84221555D01*
X77433800Y-85119400D01*
X67048500Y-85119400D01*
X67048500Y-82945900D01*
X67068185Y-82878861D01*
X67120989Y-82833106D01*
X67172500Y-82821900D01*
X78971356Y-82821900D01*
X79038395Y-82841585D01*
G37*
G04 #@! TD.AperFunction*
M02*
